<svg width="600" height="88" viewBox="0 0 600 88" fill="none" xmlns="http://www.w3.org/2000/svg" >
<path fill-rule="evenodd" clip-rule="evenodd" d="M90.3856 66.722V56.2358C80.6417 56.2358 75.909 50.9463 75.909 45.6568V25.8908C75.909 11.2286 64.8661 0 51.2247 0H39.2537C25.6123 0 14.5694 11.2286 14.5694 25.8908V45.6568C14.5694 50.9463 9.74383 56.2358 0 56.2358V66.722C9.37261 66.722 16.7965 62.3605 20.8796 56.4214C23.1996 53.1735 24.406 49.6471 24.406 45.6568V23.6636C24.406 16.3325 30.345 10.3006 37.6761 10.115C42.5944 9.92941 47.9768 10.0222 52.8951 10.115C60.2262 10.3006 66.0724 16.3325 66.0724 23.6636V45.6568C66.0724 49.4615 67.2788 53.1735 69.5059 56.4214C73.4963 62.3605 80.9201 66.722 90.3856 66.722ZM62.3605 50.4823H50.0183H40.2745H28.0251V50.5751C26.8187 64.4021 16.6109 75.4451 3.71193 76.6514V87.2305C5.66068 87.1377 7.60948 86.7665 9.55822 86.3025C23.1996 82.9618 33.8713 71.4547 37.0265 56.7926C37.2923 55.623 37.4973 54.4533 37.6413 53.2663H40.2745V87.2305H50.0183V53.2663H52.7443C52.8883 54.4533 53.0932 55.623 53.3591 56.7926C56.5142 71.4547 67.186 82.9618 80.8273 86.3025C82.7761 86.7665 84.7249 87.1377 86.6736 87.2305V76.6514C73.7746 75.4451 63.5669 64.4021 62.3605 50.5751V50.4823ZM460.45 25.3181C459.369 26.399 457.8 26.9395 455.741 26.9395C453.682 26.9395 452.086 26.399 450.954 25.3181C449.873 24.2372 449.332 22.6929 449.332 20.6855C449.332 16.6706 451.468 14.6631 455.741 14.6631C457.8 14.6631 459.369 15.2036 460.45 16.2845C461.583 17.314 462.149 18.781 462.149 20.6855C462.149 22.6929 461.583 24.2372 460.45 25.3181ZM450.876 71.1036V33.2707H460.682V71.1036H450.876ZM154.621 16.2845C146.797 16.2845 140.209 18.8839 134.856 24.0827C129.502 29.2816 126.826 35.9473 126.826 44.0801C126.826 52.1614 129.502 58.8272 134.856 64.0775C140.26 69.2763 146.849 71.8757 154.621 71.8757C162.445 71.8757 169.034 69.2763 174.387 64.0775C179.792 58.8272 182.494 52.1614 182.494 44.0801C182.494 35.9473 179.792 29.2816 174.387 24.0827C169.034 18.8839 162.445 16.2845 154.621 16.2845ZM171.916 44.0029C171.916 56.408 166.151 62.6105 154.621 62.6105C143.143 62.6105 137.403 56.408 137.403 44.0029C137.403 31.7008 143.143 25.5498 154.621 25.5498C166.151 25.5498 171.916 31.7008 171.916 44.0029ZM214.442 61.1435C213.052 62.3789 210.993 62.9966 208.265 62.9966C204.817 62.9966 202.269 62.1216 200.622 60.3715C199.026 58.6214 198.228 55.919 198.228 52.2644C198.228 48.5583 199.026 45.8303 200.622 44.0801C202.269 42.2786 204.817 41.3778 208.265 41.3778C211.045 41.3778 213.13 41.9955 214.519 43.2308C215.961 44.4662 216.964 46.6538 217.531 49.7937L227.182 47.4774C225.998 42.4844 223.733 38.7526 220.387 36.2819C217.093 33.7597 213.052 32.4986 208.265 32.4986C202.346 32.4986 197.533 34.326 193.827 37.9806C190.172 41.5837 188.345 46.3449 188.345 52.2644C188.345 58.1323 190.172 62.8679 193.827 66.471C197.533 70.0742 202.346 71.8757 208.265 71.8757C212.949 71.8757 216.964 70.6661 220.31 68.2469C223.656 65.7761 225.946 61.9929 227.182 56.897L217.531 54.5807C216.913 57.7206 215.883 59.9082 214.442 61.1435ZM259.393 41.9183H248.43V62.4561H258.467V71.1036H250.36C246.86 71.1036 244.029 70.0227 241.867 67.8608C239.705 65.6989 238.624 62.8679 238.624 59.3677V41.9183H231.366V33.2708H238.624V21.9981H248.43V33.2708H259.393V41.9183ZM302.643 33.2708H292.837V51.3379C292.837 55.1469 292.04 58.0551 290.444 60.0626C288.848 62.0186 286.661 62.9966 283.881 62.9966C279.043 62.9966 276.623 60.4487 276.623 55.3528V33.2708H266.818V55.8932C266.818 66.5482 271.296 71.8757 280.252 71.8757C286.686 71.8757 290.881 68.6586 292.837 62.2245V71.1036H302.643V33.2708ZM326.774 71.8757C322.09 71.8757 318.281 70.8205 315.347 68.7101C312.413 66.5997 310.689 63.9231 310.174 60.6803L319.362 58.1323C319.671 60.5001 320.443 62.1473 321.678 63.0738C322.965 63.9488 324.87 64.3864 327.392 64.3864C331.51 64.3864 333.569 63.0995 333.569 60.5259C333.569 59.342 333.183 58.4412 332.411 57.8235C331.638 57.2058 330.171 56.7168 328.01 56.3565L321.678 55.3528C318.281 54.7866 315.63 53.5513 313.726 51.6467C311.873 49.7422 310.946 47.1943 310.946 44.0029C310.946 40.3998 312.284 37.5945 314.961 35.587C317.638 33.5281 321.344 32.4986 326.079 32.4986C335.499 32.4986 340.878 36.1533 342.216 43.4624L333.569 45.5471C333.311 43.2308 332.668 41.6609 331.638 40.8373C330.609 40.0138 328.859 39.6019 326.388 39.6019C322.682 39.6019 320.829 40.9145 320.829 43.5397C320.829 44.6721 321.164 45.5471 321.833 46.1648C322.553 46.7825 323.789 47.22 325.539 47.4774L333.26 48.6355C336.451 49.0473 338.922 50.2054 340.672 52.11C342.474 53.963 343.374 56.408 343.374 59.4449C343.374 63.3569 341.907 66.4196 338.973 68.6329C336.039 70.7948 331.973 71.8757 326.774 71.8757ZM399.453 43.4624C404.24 44.1316 407.689 45.5986 409.799 47.8634C411.91 50.0768 412.965 52.7534 412.965 55.8932C412.965 60.5773 411.447 64.2834 408.41 67.0115C405.424 69.7396 401.435 71.1036 396.442 71.1036H370.808V17.0566H394.357C399.505 17.0566 403.571 18.292 406.557 20.7627C409.542 23.2334 411.035 26.5535 411.035 30.7228C411.035 37.4143 407.174 41.6609 399.453 43.4624ZM380.846 26.013V39.6019H393.276C398.012 39.6019 400.38 37.1827 400.38 32.3442C400.38 28.1234 397.986 26.013 393.199 26.013H380.846ZM394.357 62.1473C399.659 62.1473 402.31 59.6508 402.31 54.6579C402.31 50.2312 399.453 48.0178 393.74 48.0178H380.846V62.1473H394.357ZM445.317 33.1935C444.39 32.8332 442.872 32.653 440.761 32.653C434.739 32.653 431.059 36.4363 429.72 44.0029V33.2707H419.915V71.1036H429.72V55.43C429.72 50.7974 430.647 47.3487 432.5 45.0839C434.405 42.819 436.978 41.6866 440.221 41.6866C442.28 41.6866 443.979 41.944 445.317 42.4587V33.1935ZM507.549 17.0566H497.743V41.7638C495.272 35.587 490.743 32.4986 484.154 32.4986C478.904 32.4986 474.786 34.3002 471.801 37.9033C468.866 41.455 467.399 46.242 467.399 52.2643C467.399 58.1838 468.918 62.9451 471.955 66.5482C475.043 70.0999 479.264 71.8757 484.617 71.8757C490.949 71.8757 495.324 68.8645 497.743 62.8421V71.1036H507.549V17.0566ZM495.504 60.3714C493.805 62.1215 491.154 62.9966 487.551 62.9966C480.705 62.9966 477.282 59.4192 477.282 52.2643C477.282 45.0067 480.705 41.3778 487.551 41.3778C491.154 41.3778 493.805 42.2786 495.504 44.0801C497.203 45.8302 498.052 48.5583 498.052 52.2643C498.052 55.919 497.203 58.6214 495.504 60.3714ZM600 51.6468C600 53.0365 599.974 54.2461 599.923 55.2756H573.054C573.362 58.4155 574.238 60.706 575.679 62.1473C577.172 63.537 579.411 64.232 582.396 64.232C584.609 64.232 586.308 63.8459 587.492 63.0738C588.676 62.3017 589.731 60.9119 590.658 58.9045L599.151 61.9929C596.577 68.5814 590.915 71.8758 582.165 71.8758C576.348 71.8758 571.664 70.0999 568.112 66.5482C564.612 62.9966 562.862 58.2868 562.862 52.4188C562.862 46.4994 564.612 41.7124 568.112 38.0578C571.664 34.3517 576.245 32.4986 581.856 32.4986C587.312 32.4986 591.687 34.2488 594.981 37.7489C598.327 41.1976 600 45.8303 600 51.6468ZM581.933 39.9108C579.205 39.9108 577.12 40.6057 575.679 41.9955C574.289 43.3338 573.414 45.5214 573.054 48.5583H590.272C590.22 45.4184 589.525 43.2051 588.187 41.9183C586.849 40.5799 584.764 39.9108 581.933 39.9108ZM544.764 33.2708H554.57V66.471C554.57 72.2875 552.82 76.8172 549.319 80.06C545.871 83.3543 541.058 85.0014 534.881 85.0014C529.991 85.0014 525.873 84.1264 522.528 82.3763C519.233 80.6262 517.123 78.104 516.196 74.8098L525.616 70.872C526.285 73.2912 527.34 74.9127 528.782 75.7363C530.274 76.6113 532.462 77.0488 535.344 77.0488C538.536 77.0488 540.904 76.3282 542.448 74.887C543.992 73.4972 544.764 71.2838 544.764 68.2469V61.0664C542.19 66.3166 537.892 68.9418 531.87 68.9418C527.032 68.9418 523.145 67.2689 520.211 63.9231C517.329 60.5259 515.888 56.0992 515.888 50.643C515.888 45.1868 517.303 40.8116 520.134 37.5173C522.965 34.223 526.774 32.5758 531.561 32.5758C537.738 32.5758 542.139 35.2782 544.764 40.6829V33.2708ZM535.344 60.2943C541.882 60.2943 545.15 57.1029 545.15 50.7202C545.15 44.3375 541.907 41.1462 535.422 41.1462C529.039 41.1462 525.848 44.3375 525.848 50.7202C525.848 57.1029 529.013 60.2943 535.344 60.2943Z" fill="#10B981"/>
</svg>
